<mxfile host="Electron" modified="2023-12-04T20:22:50.836Z" agent="Mozilla/5.0 (Windows NT 10.0; Win64; x64) AppleWebKit/537.36 (KHTML, like Gecko) draw.io/22.0.2 Chrome/114.0.5735.289 Electron/25.8.4 Safari/537.36" etag="eW6BG13lxvJsjGdx1Tb6" version="22.0.2" type="device">
  <diagram name="Page-1" id="fbPLi3XkkOnaSiF_qW75">
    <mxGraphModel dx="1958" dy="1696" grid="1" gridSize="10" guides="1" tooltips="1" connect="1" arrows="1" fold="1" page="1" pageScale="1" pageWidth="827" pageHeight="1169" math="0" shadow="0">
      <root>
        <mxCell id="0" />
        <mxCell id="1" parent="0" />
        <mxCell id="rjMiHLBph7afnN-1cWJ7-1" value="" style="rounded=0;whiteSpace=wrap;html=1;" vertex="1" parent="1">
          <mxGeometry x="320" y="290" width="240" height="350" as="geometry" />
        </mxCell>
        <mxCell id="rjMiHLBph7afnN-1cWJ7-7" value="&lt;div style=&quot;&quot;&gt;&lt;b style=&quot;color: rgb(213, 93, 93); background-color: initial; font-size: 26px;&quot;&gt;INTERPRETER&lt;/b&gt;&lt;/div&gt;" style="rounded=0;whiteSpace=wrap;html=1;fillColor=#f8cecc;strokeColor=#b85450;align=center;" vertex="1" parent="1">
          <mxGeometry x="320" y="400" width="240" height="60" as="geometry" />
        </mxCell>
        <mxCell id="rjMiHLBph7afnN-1cWJ7-9" value="" style="rounded=0;whiteSpace=wrap;html=1;fillColor=#dae8fc;strokeColor=#6c8ebf;" vertex="1" parent="1">
          <mxGeometry x="320" y="460" width="240" height="110" as="geometry" />
        </mxCell>
        <mxCell id="rjMiHLBph7afnN-1cWJ7-10" value="&lt;font size=&quot;1&quot; color=&quot;#6c8ebf&quot;&gt;&lt;b style=&quot;font-size: 32px;&quot;&gt;OS&lt;/b&gt;&lt;/font&gt;" style="text;html=1;align=center;verticalAlign=middle;resizable=0;points=[];autosize=1;strokeColor=none;fillColor=none;" vertex="1" parent="1">
          <mxGeometry x="330" y="470" width="70" height="50" as="geometry" />
        </mxCell>
        <mxCell id="rjMiHLBph7afnN-1cWJ7-11" value="&lt;font size=&quot;1&quot; color=&quot;#6c8ebf&quot;&gt;&lt;b style=&quot;font-size: 24px;&quot;&gt;UEFI/BIOS&lt;/b&gt;&lt;/font&gt;" style="text;html=1;align=center;verticalAlign=middle;resizable=0;points=[];autosize=1;strokeColor=none;fillColor=none;" vertex="1" parent="1">
          <mxGeometry x="414" y="520" width="140" height="40" as="geometry" />
        </mxCell>
        <mxCell id="rjMiHLBph7afnN-1cWJ7-13" value="&lt;font size=&quot;1&quot; color=&quot;#707070&quot; style=&quot;&quot;&gt;&lt;b style=&quot;font-size: 26px;&quot;&gt;HARDWARE&lt;/b&gt;&lt;/font&gt;" style="rounded=0;whiteSpace=wrap;html=1;fillColor=#f5f5f5;fontColor=#333333;strokeColor=#666666;" vertex="1" parent="1">
          <mxGeometry x="320" y="570" width="240" height="70" as="geometry" />
        </mxCell>
        <mxCell id="rjMiHLBph7afnN-1cWJ7-15" style="edgeStyle=orthogonalEdgeStyle;rounded=0;orthogonalLoop=1;jettySize=auto;html=1;fillColor=#e1d5e7;strokeColor=#9673a6;strokeWidth=4;" edge="1" parent="1" source="rjMiHLBph7afnN-1cWJ7-14" target="rjMiHLBph7afnN-1cWJ7-7">
          <mxGeometry relative="1" as="geometry" />
        </mxCell>
        <mxCell id="rjMiHLBph7afnN-1cWJ7-14" value="&lt;b&gt;&lt;font color=&quot;#9673a6&quot; style=&quot;font-size: 20px;&quot;&gt;SCRIPT&lt;/font&gt;&lt;/b&gt;" style="ellipse;whiteSpace=wrap;html=1;fillColor=#e1d5e7;strokeColor=#9673a6;strokeWidth=3;" vertex="1" parent="1">
          <mxGeometry x="390" y="300" width="100" height="60" as="geometry" />
        </mxCell>
        <mxCell id="rjMiHLBph7afnN-1cWJ7-16" value="" style="rounded=0;whiteSpace=wrap;html=1;" vertex="1" parent="1">
          <mxGeometry x="-70" y="290" width="240" height="350" as="geometry" />
        </mxCell>
        <mxCell id="rjMiHLBph7afnN-1cWJ7-18" value="" style="rounded=0;whiteSpace=wrap;html=1;fillColor=#dae8fc;strokeColor=#6c8ebf;" vertex="1" parent="1">
          <mxGeometry x="-70" y="430" width="240" height="140" as="geometry" />
        </mxCell>
        <mxCell id="rjMiHLBph7afnN-1cWJ7-20" value="&lt;font size=&quot;1&quot; color=&quot;#6c8ebf&quot;&gt;&lt;b style=&quot;font-size: 24px;&quot;&gt;UEFI/BIOS&lt;/b&gt;&lt;/font&gt;" style="text;html=1;align=center;verticalAlign=middle;resizable=0;points=[];autosize=1;strokeColor=none;fillColor=none;" vertex="1" parent="1">
          <mxGeometry x="24" y="520" width="140" height="40" as="geometry" />
        </mxCell>
        <mxCell id="rjMiHLBph7afnN-1cWJ7-21" value="&lt;font size=&quot;1&quot; color=&quot;#707070&quot; style=&quot;&quot;&gt;&lt;b style=&quot;font-size: 26px;&quot;&gt;HARDWARE&lt;/b&gt;&lt;/font&gt;" style="rounded=0;whiteSpace=wrap;html=1;fillColor=#f5f5f5;fontColor=#333333;strokeColor=#666666;" vertex="1" parent="1">
          <mxGeometry x="-70" y="570" width="240" height="70" as="geometry" />
        </mxCell>
        <mxCell id="rjMiHLBph7afnN-1cWJ7-22" style="edgeStyle=orthogonalEdgeStyle;rounded=0;orthogonalLoop=1;jettySize=auto;html=1;fillColor=#e1d5e7;strokeColor=#9673a6;strokeWidth=4;entryX=0.5;entryY=0;entryDx=0;entryDy=0;" edge="1" parent="1" source="rjMiHLBph7afnN-1cWJ7-23" target="rjMiHLBph7afnN-1cWJ7-25">
          <mxGeometry relative="1" as="geometry">
            <mxPoint x="-25" y="470" as="targetPoint" />
          </mxGeometry>
        </mxCell>
        <mxCell id="rjMiHLBph7afnN-1cWJ7-23" value="&lt;b&gt;&lt;font color=&quot;#9673a6&quot; style=&quot;font-size: 20px;&quot;&gt;APPLICATION&lt;/font&gt;&lt;/b&gt;" style="ellipse;whiteSpace=wrap;html=1;fillColor=#e1d5e7;strokeColor=#9673a6;strokeWidth=3;" vertex="1" parent="1">
          <mxGeometry x="-30" y="300" width="160" height="60" as="geometry" />
        </mxCell>
        <mxCell id="rjMiHLBph7afnN-1cWJ7-25" value="&lt;b style=&quot;border-color: var(--border-color); color: rgb(108, 142, 191); font-size: 32px;&quot;&gt;OS&lt;/b&gt;" style="ellipse;whiteSpace=wrap;html=1;fillColor=#dae8fc;strokeColor=#6c8ebf;" vertex="1" parent="1">
          <mxGeometry x="-51" y="450" width="100" height="60" as="geometry" />
        </mxCell>
        <mxCell id="rjMiHLBph7afnN-1cWJ7-26" value="&lt;font size=&quot;1&quot; color=&quot;#6c8ebf&quot;&gt;&lt;b style=&quot;font-size: 20px;&quot;&gt;KERNEL&lt;/b&gt;&lt;/font&gt;" style="text;html=1;align=center;verticalAlign=middle;resizable=0;points=[];autosize=1;strokeColor=none;fillColor=none;" vertex="1" parent="1">
          <mxGeometry x="49" y="460" width="110" height="40" as="geometry" />
        </mxCell>
      </root>
    </mxGraphModel>
  </diagram>
</mxfile>
